<svg width="149" height="97" viewBox="0 0 149 97" fill="none" xmlns="http://www.w3.org/2000/svg">
<path d="M34.0703 71.8672L29.7109 89H25.5742L23.2539 80C23.207 79.8281 23.1445 79.5664 23.0664 79.2148C22.9883 78.8633 22.9062 78.4805 22.8203 78.0664C22.7344 77.6445 22.6562 77.25 22.5859 76.8828C22.5234 76.5078 22.4805 76.2109 22.457 75.9922C22.4336 76.2109 22.3867 76.5039 22.3164 76.8711C22.2539 77.2383 22.1797 77.6289 22.0938 78.043C22.0156 78.457 21.9375 78.8438 21.8594 79.2031C21.7812 79.5625 21.7188 79.8359 21.6719 80.0234L19.3633 89H15.2383L10.8672 71.8672H14.4414L16.6328 81.2188C16.6953 81.5 16.7656 81.8359 16.8438 82.2266C16.9297 82.6172 17.0117 83.0273 17.0898 83.457C17.1758 83.8789 17.25 84.2891 17.3125 84.6875C17.3828 85.0781 17.4336 85.418 17.4648 85.707C17.5039 85.4102 17.5547 85.0664 17.6172 84.6758C17.6797 84.2773 17.7461 83.875 17.8164 83.4688C17.8945 83.0547 17.9727 82.6719 18.0508 82.3203C18.1289 81.9688 18.1992 81.6836 18.2617 81.4648L20.7578 71.8672H24.1914L26.6875 81.4648C26.7422 81.6758 26.8047 81.9609 26.875 82.3203C26.9531 82.6719 27.0312 83.0547 27.1094 83.4688C27.1875 83.8828 27.2578 84.2891 27.3203 84.6875C27.3906 85.0781 27.4414 85.418 27.4727 85.707C27.5273 85.3164 27.6016 84.8438 27.6953 84.2891C27.7969 83.7266 27.9023 83.168 28.0117 82.6133C28.1289 82.0586 28.2305 81.5938 28.3164 81.2188L30.4961 71.8672H34.0703ZM45.0859 85.1094C45.0859 86 44.875 86.7539 44.4531 87.3711C44.0391 87.9805 43.418 88.4453 42.5898 88.7656C41.7617 89.0781 40.7305 89.2344 39.4961 89.2344C38.582 89.2344 37.7969 89.1758 37.1406 89.0586C36.4922 88.9414 35.8359 88.7461 35.1719 88.4727V85.5195C35.8828 85.8398 36.6445 86.1055 37.457 86.3164C38.2773 86.5195 38.9961 86.6211 39.6133 86.6211C40.3086 86.6211 40.8047 86.5195 41.1016 86.3164C41.4062 86.1055 41.5586 85.832 41.5586 85.4961C41.5586 85.2773 41.4961 85.082 41.3711 84.9102C41.2539 84.7305 40.9961 84.5312 40.5977 84.3125C40.1992 84.0859 39.5742 83.793 38.7227 83.4336C37.9023 83.0898 37.2266 82.7422 36.6953 82.3906C36.1719 82.0391 35.7812 81.625 35.5234 81.1484C35.2734 80.6641 35.1484 80.0508 35.1484 79.3086C35.1484 78.0977 35.6172 77.1875 36.5547 76.5781C37.5 75.9609 38.7617 75.6523 40.3398 75.6523C41.1523 75.6523 41.9258 75.7344 42.6602 75.8984C43.4023 76.0625 44.1641 76.3242 44.9453 76.6836L43.8672 79.2617C43.2188 78.9805 42.6055 78.75 42.0273 78.5703C41.457 78.3906 40.875 78.3008 40.2812 78.3008C39.7578 78.3008 39.3633 78.3711 39.0977 78.5117C38.832 78.6523 38.6992 78.8672 38.6992 79.1562C38.6992 79.3672 38.7656 79.5547 38.8984 79.7188C39.0391 79.8828 39.3047 80.0664 39.6953 80.2695C40.0938 80.4648 40.6758 80.7188 41.4414 81.0312C42.1836 81.3359 42.8281 81.6562 43.375 81.9922C43.9219 82.3203 44.3438 82.7305 44.6406 83.2227C44.9375 83.707 45.0859 84.3359 45.0859 85.1094ZM53.3945 86.3867C53.7852 86.3867 54.1641 86.3477 54.5312 86.2695C54.9062 86.1914 55.2773 86.0938 55.6445 85.9766V88.6367C55.2617 88.8086 54.7852 88.9492 54.2148 89.0586C53.6523 89.1758 53.0352 89.2344 52.3633 89.2344C51.582 89.2344 50.8789 89.1094 50.2539 88.8594C49.6367 88.6016 49.1484 88.1602 48.7891 87.5352C48.4375 86.9023 48.2617 86.0234 48.2617 84.8984V78.582H46.5508V77.0703L48.5195 75.875L49.5508 73.1094H51.8359V75.8984H55.5039V78.582H51.8359V84.8984C51.8359 85.3984 51.9766 85.7734 52.2578 86.0234C52.5469 86.2656 52.9258 86.3867 53.3945 86.3867ZM65.6172 75.6523C65.7969 75.6523 66.0039 75.6641 66.2383 75.6875C66.4805 75.7031 66.6758 75.7266 66.8242 75.7578L66.5547 79.1094C66.4375 79.0703 66.2695 79.043 66.0508 79.0273C65.8398 79.0039 65.6562 78.9922 65.5 78.9922C65.0391 78.9922 64.5898 79.0508 64.1523 79.168C63.7227 79.2852 63.3359 79.4766 62.9922 79.7422C62.6484 80 62.375 80.3438 62.1719 80.7734C61.9766 81.1953 61.8789 81.7148 61.8789 82.332V89H58.3047V75.8984H61.0117L61.5391 78.1016H61.7148C61.9727 77.6562 62.293 77.25 62.6758 76.8828C63.0664 76.5078 63.5078 76.2109 64 75.9922C64.5 75.7656 65.0391 75.6523 65.6172 75.6523ZM78.3203 89H67.9727V86.8906L74.043 78.6289H68.3359V75.8984H78.1094V78.2188L72.2031 86.2695H78.3203V89ZM79.0469 75.8984H82.9609L85.4336 83.2695C85.5117 83.5039 85.5781 83.7422 85.6328 83.9844C85.6875 84.2266 85.7344 84.4766 85.7734 84.7344C85.8125 84.9922 85.8438 85.2617 85.8672 85.543H85.9375C85.9844 85.1211 86.0469 84.7266 86.125 84.3594C86.2109 83.9922 86.3164 83.6289 86.4414 83.2695L88.8672 75.8984H92.6992L87.1562 90.6758C86.8203 91.582 86.3828 92.3359 85.8438 92.9375C85.3047 93.5469 84.6836 94.0039 83.9805 94.3086C83.2852 94.6133 82.5195 94.7656 81.6836 94.7656C81.2773 94.7656 80.9258 94.7422 80.6289 94.6953C80.332 94.6562 80.0781 94.6133 79.8672 94.5664V91.7305C80.0312 91.7695 80.2383 91.8047 80.4883 91.8359C80.7383 91.8672 81 91.8828 81.2734 91.8828C81.7734 91.8828 82.2031 91.7773 82.5625 91.5664C82.9219 91.3555 83.2227 91.0703 83.4648 90.7109C83.707 90.3594 83.8984 89.9727 84.0391 89.5508L84.25 88.9062L79.0469 75.8984ZM109.973 75.6523C111.457 75.6523 112.578 76.0352 113.336 76.8008C114.102 77.5586 114.484 78.7773 114.484 80.457V89H110.898V81.3477C110.898 80.4102 110.738 79.7031 110.418 79.2266C110.098 78.75 109.602 78.5117 108.93 78.5117C107.984 78.5117 107.312 78.8516 106.914 79.5312C106.516 80.2031 106.316 81.168 106.316 82.4258V89H102.742V81.3477C102.742 80.7227 102.672 80.1992 102.531 79.7773C102.391 79.3555 102.176 79.0391 101.887 78.8281C101.598 78.6172 101.227 78.5117 100.773 78.5117C100.109 78.5117 99.5859 78.6797 99.2031 79.0156C98.8281 79.3438 98.5586 79.832 98.3945 80.4805C98.2383 81.1211 98.1602 81.9062 98.1602 82.8359V89H94.5859V75.8984H97.3164L97.7969 77.5742H97.9961C98.2617 77.1211 98.5938 76.7539 98.9922 76.4727C99.3984 76.1914 99.8438 75.9844 100.328 75.8516C100.812 75.7188 101.305 75.6523 101.805 75.6523C102.766 75.6523 103.578 75.8086 104.242 76.1211C104.914 76.4336 105.43 76.918 105.789 77.5742H106.105C106.496 76.9023 107.047 76.4141 107.758 76.1094C108.477 75.8047 109.215 75.6523 109.973 75.6523ZM123.531 75.6289C125.289 75.6289 126.637 76.0117 127.574 76.7773C128.512 77.543 128.98 78.707 128.98 80.2695V89H126.484L125.793 87.2188H125.699C125.324 87.6875 124.941 88.0703 124.551 88.3672C124.16 88.6641 123.711 88.8828 123.203 89.0234C122.695 89.1641 122.078 89.2344 121.352 89.2344C120.578 89.2344 119.883 89.0859 119.266 88.7891C118.656 88.4922 118.176 88.0391 117.824 87.4297C117.473 86.8125 117.297 86.0312 117.297 85.0859C117.297 83.6953 117.785 82.6719 118.762 82.0156C119.738 81.3516 121.203 80.9844 123.156 80.9141L125.43 80.8438V80.2695C125.43 79.582 125.25 79.0781 124.891 78.7578C124.531 78.4375 124.031 78.2773 123.391 78.2773C122.758 78.2773 122.137 78.3672 121.527 78.5469C120.918 78.7266 120.309 78.9531 119.699 79.2266L118.516 76.8125C119.211 76.4453 119.988 76.1562 120.848 75.9453C121.715 75.7344 122.609 75.6289 123.531 75.6289ZM125.43 82.9297L124.047 82.9766C122.891 83.0078 122.086 83.2148 121.633 83.5977C121.188 83.9805 120.965 84.4844 120.965 85.1094C120.965 85.6562 121.125 86.0469 121.445 86.2812C121.766 86.5078 122.184 86.6211 122.699 86.6211C123.465 86.6211 124.109 86.3945 124.633 85.9414C125.164 85.4883 125.43 84.8438 125.43 84.0078V82.9297ZM131.617 94.7656C131.211 94.7656 130.789 94.7344 130.352 94.6719C129.914 94.6172 129.551 94.5508 129.262 94.4727V91.6602C129.551 91.7383 129.824 91.793 130.082 91.8242C130.332 91.8633 130.617 91.8828 130.938 91.8828C131.422 91.8828 131.832 91.7461 132.168 91.4727C132.504 91.207 132.672 90.6797 132.672 89.8906V75.8984H136.246V90.418C136.246 91.2148 136.094 91.9414 135.789 92.5977C135.484 93.2617 134.992 93.7891 134.312 94.1797C133.633 94.5703 132.734 94.7656 131.617 94.7656ZM132.52 72.5117C132.52 71.8398 132.707 71.3828 133.082 71.1406C133.465 70.8906 133.926 70.7656 134.465 70.7656C134.996 70.7656 135.453 70.8906 135.836 71.1406C136.219 71.3828 136.41 71.8398 136.41 72.5117C136.41 73.1758 136.219 73.6367 135.836 73.8945C135.453 74.1445 134.996 74.2695 134.465 74.2695C133.926 74.2695 133.465 74.1445 133.082 73.8945C132.707 73.6367 132.52 73.1758 132.52 72.5117Z" fill="#FFB423"/>
<circle cx="74" cy="30" r="27" stroke="#FFB423" stroke-width="6"/>
<rect x="66.5" y="18.5" width="4" height="22" rx="0.5" fill="#FFB423" stroke="#FFB423"/>
<rect x="77.5" y="18.5" width="4" height="22" rx="0.5" fill="#FFB423" stroke="#FFB423"/>
</svg>

