<svg width="149" height="97" viewBox="0 0 149 97" fill="none" xmlns="http://www.w3.org/2000/svg">
<path d="M38.8281 89H26.0781V86.6445L34.293 74.8672H26.3008V71.8672H38.6055V74.2109L30.4023 86H38.8281V89ZM46.6445 75.6289C48.4023 75.6289 49.75 76.0117 50.6875 76.7773C51.625 77.543 52.0938 78.707 52.0938 80.2695V89H49.5977L48.9062 87.2188H48.8125C48.4375 87.6875 48.0547 88.0703 47.6641 88.3672C47.2734 88.6641 46.8242 88.8828 46.3164 89.0234C45.8086 89.1641 45.1914 89.2344 44.4648 89.2344C43.6914 89.2344 42.9961 89.0859 42.3789 88.7891C41.7695 88.4922 41.2891 88.0391 40.9375 87.4297C40.5859 86.8125 40.4102 86.0312 40.4102 85.0859C40.4102 83.6953 40.8984 82.6719 41.875 82.0156C42.8516 81.3516 44.3164 80.9844 46.2695 80.9141L48.543 80.8438V80.2695C48.543 79.582 48.3633 79.0781 48.0039 78.7578C47.6445 78.4375 47.1445 78.2773 46.5039 78.2773C45.8711 78.2773 45.25 78.3672 44.6406 78.5469C44.0312 78.7266 43.4219 78.9531 42.8125 79.2266L41.6289 76.8125C42.3242 76.4453 43.1016 76.1562 43.9609 75.9453C44.8281 75.7344 45.7227 75.6289 46.6445 75.6289ZM48.543 82.9297L47.1602 82.9766C46.0039 83.0078 45.1992 83.2148 44.7461 83.5977C44.3008 83.9805 44.0781 84.4844 44.0781 85.1094C44.0781 85.6562 44.2383 86.0469 44.5586 86.2812C44.8789 86.5078 45.2969 86.6211 45.8125 86.6211C46.5781 86.6211 47.2227 86.3945 47.7461 85.9414C48.2773 85.4883 48.543 84.8438 48.543 84.0078V82.9297ZM59.3594 70.7656V78.9219C59.3594 79.4141 59.3398 79.9062 59.3008 80.3984C59.2617 80.8906 59.2188 81.3828 59.1719 81.875H59.2188C59.4609 81.5312 59.707 81.1914 59.957 80.8555C60.2148 80.5195 60.4883 80.1953 60.7773 79.8828L64.4453 75.8984H68.4766L63.2734 81.582L68.793 89H64.668L60.8945 83.6914L59.3594 84.9219V89H55.7852V70.7656H59.3594ZM82.5742 82.4258C82.5742 83.5195 82.4258 84.4883 82.1289 85.332C81.8398 86.1758 81.4141 86.8906 80.8516 87.4766C80.2969 88.0547 79.625 88.4922 78.8359 88.7891C78.0547 89.0859 77.1719 89.2344 76.1875 89.2344C75.2656 89.2344 74.418 89.0859 73.6445 88.7891C72.8789 88.4922 72.2109 88.0547 71.6406 87.4766C71.0781 86.8906 70.6406 86.1758 70.3281 85.332C70.0234 84.4883 69.8711 83.5195 69.8711 82.4258C69.8711 80.9727 70.1289 79.7422 70.6445 78.7344C71.1602 77.7266 71.8945 76.9609 72.8477 76.4375C73.8008 75.9141 74.9375 75.6523 76.2578 75.6523C77.4844 75.6523 78.5703 75.9141 79.5156 76.4375C80.4688 76.9609 81.2148 77.7266 81.7539 78.7344C82.3008 79.7422 82.5742 80.9727 82.5742 82.4258ZM73.5156 82.4258C73.5156 83.2852 73.6094 84.0078 73.7969 84.5938C73.9844 85.1797 74.2773 85.6211 74.6758 85.918C75.0742 86.2148 75.5938 86.3633 76.2344 86.3633C76.8672 86.3633 77.3789 86.2148 77.7695 85.918C78.168 85.6211 78.457 85.1797 78.6367 84.5938C78.8242 84.0078 78.918 83.2852 78.918 82.4258C78.918 81.5586 78.8242 80.8398 78.6367 80.2695C78.457 79.6914 78.168 79.2578 77.7695 78.9688C77.3711 78.6797 76.8516 78.5352 76.2109 78.5352C75.2656 78.5352 74.5781 78.8594 74.1484 79.5078C73.7266 80.1562 73.5156 81.1289 73.5156 82.4258ZM92.9688 75.6523C94.3672 75.6523 95.4922 76.0352 96.3438 76.8008C97.1953 77.5586 97.6211 78.7773 97.6211 80.457V89H94.0469V81.3477C94.0469 80.4102 93.875 79.7031 93.5312 79.2266C93.1953 78.75 92.6641 78.5117 91.9375 78.5117C90.8438 78.5117 90.0977 78.8828 89.6992 79.625C89.3008 80.3672 89.1016 81.4375 89.1016 82.8359V89H85.5273V75.8984H88.2578L88.7383 77.5742H88.9375C89.2188 77.1211 89.5664 76.7539 89.9805 76.4727C90.4023 76.1914 90.8672 75.9844 91.375 75.8516C91.8906 75.7188 92.4219 75.6523 92.9688 75.6523ZM96.1562 70.6133V70.8594C95.9297 71.0781 95.6328 71.3477 95.2656 71.668C94.8984 71.9883 94.5039 72.3242 94.082 72.6758C93.6602 73.0195 93.2461 73.3516 92.8398 73.6719C92.4336 73.9844 92.0781 74.2461 91.7734 74.457H89.3945V74.1406C89.6523 73.8438 89.9492 73.4922 90.2852 73.0859C90.6289 72.6719 90.9688 72.2461 91.3047 71.8086C91.6406 71.3711 91.9219 70.9727 92.1484 70.6133H96.1562ZM106.621 89.2344C105.324 89.2344 104.219 89 103.305 88.5312C102.391 88.0547 101.695 87.3203 101.219 86.3281C100.742 85.3359 100.504 84.0664 100.504 82.5195C100.504 80.918 100.773 79.6133 101.312 78.6055C101.859 77.5898 102.613 76.8438 103.574 76.3672C104.543 75.8906 105.664 75.6523 106.938 75.6523C107.844 75.6523 108.625 75.7422 109.281 75.9219C109.945 76.0938 110.523 76.3008 111.016 76.543L109.961 79.3086C109.398 79.082 108.875 78.8984 108.391 78.7578C107.906 78.6094 107.422 78.5352 106.938 78.5352C106.312 78.5352 105.793 78.6836 105.379 78.9805C104.965 79.2695 104.656 79.707 104.453 80.293C104.25 80.8789 104.148 81.6133 104.148 82.4961C104.148 83.3633 104.258 84.082 104.477 84.6523C104.695 85.2227 105.012 85.6484 105.426 85.9297C105.84 86.2031 106.344 86.3398 106.938 86.3398C107.68 86.3398 108.34 86.2422 108.918 86.0469C109.496 85.8438 110.059 85.5625 110.605 85.2031V88.2617C110.059 88.6055 109.484 88.8516 108.883 89C108.289 89.1562 107.535 89.2344 106.621 89.2344ZM122.77 89H112.422V86.8906L118.492 78.6289H112.785V75.8984H122.559V78.2188L116.652 86.2695H122.77V89Z" fill="#DC0135"/>
<circle cx="74" cy="30" r="27" stroke="#DC0135" stroke-width="6"/>
<rect x="64" y="20" width="20" height="20" rx="1" fill="#DC0135"/>
</svg>