<svg width="272" height="107" viewBox="0 0 272 107" fill="none" xmlns="http://www.w3.org/2000/svg">
<path d="M131.4 47.7L145.41 37.2C146.22 36.6 146.22 35.4 145.41 34.8L131.4 24.3C130.41 23.55 129 24.27 129 25.5V46.5C129 47.73 130.41 48.45 131.4 47.7ZM135 6C118.44 6 105 19.44 105 36C105 52.56 118.44 66 135 66C151.56 66 165 52.56 165 36C165 19.44 151.56 6 135 6ZM135 60C121.77 60 111 49.23 111 36C111 22.77 121.77 12 135 12C148.23 12 159 22.77 159 36C159 49.23 148.23 60 135 60Z" fill="#18AB88"/>
<path d="M5.79688 83.8672C7.35156 83.8672 8.63281 84.0547 9.64062 84.4297C10.6562 84.8047 11.4102 85.3711 11.9023 86.1289C12.3945 86.8867 12.6406 87.8438 12.6406 89C12.6406 89.7812 12.4922 90.4648 12.1953 91.0508C11.8984 91.6367 11.5078 92.1328 11.0234 92.5391C10.5391 92.9453 10.0156 93.2773 9.45312 93.5352L14.4922 101H10.4609L6.37109 94.4258H4.4375V101H0.804688V83.8672H5.79688ZM5.53906 86.8438H4.4375V91.4727H5.60938C6.8125 91.4727 7.67188 91.2734 8.1875 90.875C8.71094 90.4688 8.97266 89.875 8.97266 89.0938C8.97266 88.2812 8.69141 87.7031 8.12891 87.3594C7.57422 87.0156 6.71094 86.8438 5.53906 86.8438ZM28.2734 94.4258C28.2734 95.5195 28.125 96.4883 27.8281 97.332C27.5391 98.1758 27.1133 98.8906 26.5508 99.4766C25.9961 100.055 25.3242 100.492 24.5352 100.789C23.7539 101.086 22.8711 101.234 21.8867 101.234C20.9648 101.234 20.1172 101.086 19.3438 100.789C18.5781 100.492 17.9102 100.055 17.3398 99.4766C16.7773 98.8906 16.3398 98.1758 16.0273 97.332C15.7227 96.4883 15.5703 95.5195 15.5703 94.4258C15.5703 92.9727 15.8281 91.7422 16.3438 90.7344C16.8594 89.7266 17.5938 88.9609 18.5469 88.4375C19.5 87.9141 20.6367 87.6523 21.957 87.6523C23.1836 87.6523 24.2695 87.9141 25.2148 88.4375C26.168 88.9609 26.9141 89.7266 27.4531 90.7344C28 91.7422 28.2734 92.9727 28.2734 94.4258ZM19.2148 94.4258C19.2148 95.2852 19.3086 96.0078 19.4961 96.5938C19.6836 97.1797 19.9766 97.6211 20.375 97.918C20.7734 98.2148 21.293 98.3633 21.9336 98.3633C22.5664 98.3633 23.0781 98.2148 23.4688 97.918C23.8672 97.6211 24.1562 97.1797 24.3359 96.5938C24.5234 96.0078 24.6172 95.2852 24.6172 94.4258C24.6172 93.5586 24.5234 92.8398 24.3359 92.2695C24.1562 91.6914 23.8672 91.2578 23.4688 90.9688C23.0703 90.6797 22.5508 90.5352 21.9102 90.5352C20.9648 90.5352 20.2773 90.8594 19.8477 91.5078C19.4258 92.1562 19.2148 93.1289 19.2148 94.4258ZM40.3438 101H29.9961V98.8906L36.0664 90.6289H30.3594V87.8984H40.1328V90.2188L34.2266 98.2695H40.3438V101ZM50.2344 87.6523C51.7109 87.6523 52.9023 88.2266 53.8086 89.375C54.7227 90.5234 55.1797 92.207 55.1797 94.4258C55.1797 95.9102 54.9648 97.1602 54.5352 98.1758C54.1055 99.1836 53.5117 99.9453 52.7539 100.461C51.9961 100.977 51.125 101.234 50.1406 101.234C49.5078 101.234 48.9648 101.156 48.5117 101C48.0586 100.836 47.6719 100.629 47.3516 100.379C47.0312 100.121 46.7539 99.8477 46.5195 99.5586H46.332C46.3945 99.8711 46.4414 100.191 46.4727 100.52C46.5039 100.848 46.5195 101.168 46.5195 101.48V106.766H42.9453V87.8984H45.8516L46.3555 89.5977H46.5195C46.7539 89.2461 47.0391 88.9219 47.375 88.625C47.7109 88.3281 48.1133 88.0938 48.582 87.9219C49.0586 87.7422 49.6094 87.6523 50.2344 87.6523ZM49.0859 90.5117C48.4609 90.5117 47.9648 90.6406 47.5977 90.8984C47.2305 91.1562 46.9609 91.543 46.7891 92.0586C46.625 92.5742 46.5352 93.2266 46.5195 94.0156V94.4023C46.5195 95.2461 46.5977 95.9609 46.7539 96.5469C46.918 97.1328 47.1875 97.5781 47.5625 97.8828C47.9453 98.1875 48.4688 98.3398 49.1328 98.3398C49.6797 98.3398 50.1289 98.1875 50.4805 97.8828C50.832 97.5781 51.0938 97.1328 51.2656 96.5469C51.4453 95.9531 51.5352 95.2305 51.5352 94.3789C51.5352 93.0977 51.3359 92.1328 50.9375 91.4844C50.5391 90.8359 49.9219 90.5117 49.0859 90.5117ZM70.0391 94.4258C70.0391 95.5195 69.8906 96.4883 69.5938 97.332C69.3047 98.1758 68.8789 98.8906 68.3164 99.4766C67.7617 100.055 67.0898 100.492 66.3008 100.789C65.5195 101.086 64.6367 101.234 63.6523 101.234C62.7305 101.234 61.8828 101.086 61.1094 100.789C60.3438 100.492 59.6758 100.055 59.1055 99.4766C58.543 98.8906 58.1055 98.1758 57.793 97.332C57.4883 96.4883 57.3359 95.5195 57.3359 94.4258C57.3359 92.9727 57.5938 91.7422 58.1094 90.7344C58.625 89.7266 59.3594 88.9609 60.3125 88.4375C61.2656 87.9141 62.4023 87.6523 63.7227 87.6523C64.9492 87.6523 66.0352 87.9141 66.9805 88.4375C67.9336 88.9609 68.6797 89.7266 69.2188 90.7344C69.7656 91.7422 70.0391 92.9727 70.0391 94.4258ZM60.9805 94.4258C60.9805 95.2852 61.0742 96.0078 61.2617 96.5938C61.4492 97.1797 61.7422 97.6211 62.1406 97.918C62.5391 98.2148 63.0586 98.3633 63.6992 98.3633C64.332 98.3633 64.8438 98.2148 65.2344 97.918C65.6328 97.6211 65.9219 97.1797 66.1016 96.5938C66.2891 96.0078 66.3828 95.2852 66.3828 94.4258C66.3828 93.5586 66.2891 92.8398 66.1016 92.2695C65.9219 91.6914 65.6328 91.2578 65.2344 90.9688C64.8359 90.6797 64.3164 90.5352 63.6758 90.5352C62.7305 90.5352 62.043 90.8594 61.6133 91.5078C61.1914 92.1562 60.9805 93.1289 60.9805 94.4258ZM78.3125 101.234C77.0156 101.234 75.9102 101 74.9961 100.531C74.082 100.055 73.3867 99.3203 72.9102 98.3281C72.4336 97.3359 72.1953 96.0664 72.1953 94.5195C72.1953 92.918 72.4648 91.6133 73.0039 90.6055C73.5508 89.5898 74.3047 88.8438 75.2656 88.3672C76.2344 87.8906 77.3555 87.6523 78.6289 87.6523C79.5352 87.6523 80.3164 87.7422 80.9727 87.9219C81.6367 88.0938 82.2148 88.3008 82.707 88.543L81.6523 91.3086C81.0898 91.082 80.5664 90.8984 80.082 90.7578C79.5977 90.6094 79.1133 90.5352 78.6289 90.5352C78.0039 90.5352 77.4844 90.6836 77.0703 90.9805C76.6562 91.2695 76.3477 91.707 76.1445 92.293C75.9414 92.8789 75.8398 93.6133 75.8398 94.4961C75.8398 95.3633 75.9492 96.082 76.168 96.6523C76.3867 97.2227 76.7031 97.6484 77.1172 97.9297C77.5312 98.2031 78.0352 98.3398 78.6289 98.3398C79.3711 98.3398 80.0312 98.2422 80.6094 98.0469C81.1875 97.8438 81.75 97.5625 82.2969 97.2031V100.262C81.75 100.605 81.1758 100.852 80.5742 101C79.9805 101.156 79.2266 101.234 78.3125 101.234ZM94.4609 101H84.1133V98.8906L90.1836 90.6289H84.4766V87.8984H94.25V90.2188L88.3438 98.2695H94.4609V101ZM104.504 87.6523C105.902 87.6523 107.027 88.0352 107.879 88.8008C108.73 89.5586 109.156 90.7773 109.156 92.457V101H105.582V93.3477C105.582 92.4102 105.41 91.7031 105.066 91.2266C104.73 90.75 104.199 90.5117 103.473 90.5117C102.379 90.5117 101.633 90.8828 101.234 91.625C100.836 92.3672 100.637 93.4375 100.637 94.8359V101H97.0625V87.8984H99.793L100.273 89.5742H100.473C100.754 89.1211 101.102 88.7539 101.516 88.4727C101.938 88.1914 102.402 87.9844 102.91 87.8516C103.426 87.7188 103.957 87.6523 104.504 87.6523ZM116.41 87.8984V101H112.836V87.8984H116.41ZM114.629 82.7656C115.16 82.7656 115.617 82.8906 116 83.1406C116.383 83.3828 116.574 83.8398 116.574 84.5117C116.574 85.1758 116.383 85.6367 116 85.8945C115.617 86.1445 115.16 86.2695 114.629 86.2695C114.09 86.2695 113.629 86.1445 113.246 85.8945C112.871 85.6367 112.684 85.1758 112.684 84.5117C112.684 83.8398 112.871 83.3828 113.246 83.1406C113.629 82.8906 114.09 82.7656 114.629 82.7656ZM119.117 106.766C118.711 106.766 118.289 106.734 117.852 106.672C117.414 106.617 117.051 106.551 116.762 106.473V103.66C117.051 103.738 117.324 103.793 117.582 103.824C117.832 103.863 118.117 103.883 118.438 103.883C118.922 103.883 119.332 103.746 119.668 103.473C120.004 103.207 120.172 102.68 120.172 101.891V87.8984H123.746V102.418C123.746 103.215 123.594 103.941 123.289 104.598C122.984 105.262 122.492 105.789 121.812 106.18C121.133 106.57 120.234 106.766 119.117 106.766ZM120.02 84.5117C120.02 83.8398 120.207 83.3828 120.582 83.1406C120.965 82.8906 121.426 82.7656 121.965 82.7656C122.496 82.7656 122.953 82.8906 123.336 83.1406C123.719 83.3828 123.91 83.8398 123.91 84.5117C123.91 85.1758 123.719 85.6367 123.336 85.8945C122.953 86.1445 122.496 86.2695 121.965 86.2695C121.426 86.2695 120.965 86.1445 120.582 85.8945C120.207 85.6367 120.02 85.1758 120.02 84.5117ZM149.129 87.6523C150.613 87.6523 151.734 88.0352 152.492 88.8008C153.258 89.5586 153.641 90.7773 153.641 92.457V101H150.055V93.3477C150.055 92.4102 149.895 91.7031 149.574 91.2266C149.254 90.75 148.758 90.5117 148.086 90.5117C147.141 90.5117 146.469 90.8516 146.07 91.5312C145.672 92.2031 145.473 93.168 145.473 94.4258V101H141.898V93.3477C141.898 92.7227 141.828 92.1992 141.688 91.7773C141.547 91.3555 141.332 91.0391 141.043 90.8281C140.754 90.6172 140.383 90.5117 139.93 90.5117C139.266 90.5117 138.742 90.6797 138.359 91.0156C137.984 91.3438 137.715 91.832 137.551 92.4805C137.395 93.1211 137.316 93.9062 137.316 94.8359V101H133.742V87.8984H136.473L136.953 89.5742H137.152C137.418 89.1211 137.75 88.7539 138.148 88.4727C138.555 88.1914 139 87.9844 139.484 87.8516C139.969 87.7188 140.461 87.6523 140.961 87.6523C141.922 87.6523 142.734 87.8086 143.398 88.1211C144.07 88.4336 144.586 88.918 144.945 89.5742H145.262C145.652 88.9023 146.203 88.4141 146.914 88.1094C147.633 87.8047 148.371 87.6523 149.129 87.6523ZM162.688 87.6289C164.445 87.6289 165.793 88.0117 166.73 88.7773C167.668 89.543 168.137 90.707 168.137 92.2695V101H165.641L164.949 99.2188H164.855C164.48 99.6875 164.098 100.07 163.707 100.367C163.316 100.664 162.867 100.883 162.359 101.023C161.852 101.164 161.234 101.234 160.508 101.234C159.734 101.234 159.039 101.086 158.422 100.789C157.812 100.492 157.332 100.039 156.98 99.4297C156.629 98.8125 156.453 98.0312 156.453 97.0859C156.453 95.6953 156.941 94.6719 157.918 94.0156C158.895 93.3516 160.359 92.9844 162.312 92.9141L164.586 92.8438V92.2695C164.586 91.582 164.406 91.0781 164.047 90.7578C163.688 90.4375 163.188 90.2773 162.547 90.2773C161.914 90.2773 161.293 90.3672 160.684 90.5469C160.074 90.7266 159.465 90.9531 158.855 91.2266L157.672 88.8125C158.367 88.4453 159.145 88.1562 160.004 87.9453C160.871 87.7344 161.766 87.6289 162.688 87.6289ZM164.586 94.9297L163.203 94.9766C162.047 95.0078 161.242 95.2148 160.789 95.5977C160.344 95.9805 160.121 96.4844 160.121 97.1094C160.121 97.6562 160.281 98.0469 160.602 98.2812C160.922 98.5078 161.34 98.6211 161.855 98.6211C162.621 98.6211 163.266 98.3945 163.789 97.9414C164.32 97.4883 164.586 96.8438 164.586 96.0078V94.9297ZM179.117 87.6523C180.594 87.6523 181.785 88.2266 182.691 89.375C183.605 90.5234 184.062 92.207 184.062 94.4258C184.062 95.9102 183.848 97.1602 183.418 98.1758C182.988 99.1836 182.395 99.9453 181.637 100.461C180.879 100.977 180.008 101.234 179.023 101.234C178.391 101.234 177.848 101.156 177.395 101C176.941 100.836 176.555 100.629 176.234 100.379C175.914 100.121 175.637 99.8477 175.402 99.5586H175.215C175.277 99.8711 175.324 100.191 175.355 100.52C175.387 100.848 175.402 101.168 175.402 101.48V106.766H171.828V87.8984H174.734L175.238 89.5977H175.402C175.637 89.2461 175.922 88.9219 176.258 88.625C176.594 88.3281 176.996 88.0938 177.465 87.9219C177.941 87.7422 178.492 87.6523 179.117 87.6523ZM177.969 90.5117C177.344 90.5117 176.848 90.6406 176.48 90.8984C176.113 91.1562 175.844 91.543 175.672 92.0586C175.508 92.5742 175.418 93.2266 175.402 94.0156V94.4023C175.402 95.2461 175.48 95.9609 175.637 96.5469C175.801 97.1328 176.07 97.5781 176.445 97.8828C176.828 98.1875 177.352 98.3398 178.016 98.3398C178.562 98.3398 179.012 98.1875 179.363 97.8828C179.715 97.5781 179.977 97.1328 180.148 96.5469C180.328 95.9531 180.418 95.2305 180.418 94.3789C180.418 93.0977 180.219 92.1328 179.82 91.4844C179.422 90.8359 178.805 90.5117 177.969 90.5117ZM198.922 94.4258C198.922 95.5195 198.773 96.4883 198.477 97.332C198.188 98.1758 197.762 98.8906 197.199 99.4766C196.645 100.055 195.973 100.492 195.184 100.789C194.402 101.086 193.52 101.234 192.535 101.234C191.613 101.234 190.766 101.086 189.992 100.789C189.227 100.492 188.559 100.055 187.988 99.4766C187.426 98.8906 186.988 98.1758 186.676 97.332C186.371 96.4883 186.219 95.5195 186.219 94.4258C186.219 92.9727 186.477 91.7422 186.992 90.7344C187.508 89.7266 188.242 88.9609 189.195 88.4375C190.148 87.9141 191.285 87.6523 192.605 87.6523C193.832 87.6523 194.918 87.9141 195.863 88.4375C196.816 88.9609 197.562 89.7266 198.102 90.7344C198.648 91.7422 198.922 92.9727 198.922 94.4258ZM189.863 94.4258C189.863 95.2852 189.957 96.0078 190.145 96.5938C190.332 97.1797 190.625 97.6211 191.023 97.918C191.422 98.2148 191.941 98.3633 192.582 98.3633C193.215 98.3633 193.727 98.2148 194.117 97.918C194.516 97.6211 194.805 97.1797 194.984 96.5938C195.172 96.0078 195.266 95.2852 195.266 94.4258C195.266 93.5586 195.172 92.8398 194.984 92.2695C194.805 91.6914 194.516 91.2578 194.117 90.9688C193.719 90.6797 193.199 90.5352 192.559 90.5352C191.613 90.5352 190.926 90.8594 190.496 91.5078C190.074 92.1562 189.863 93.1289 189.863 94.4258ZM212.645 101L211.637 96.418C211.582 96.1445 211.492 95.7422 211.367 95.2109C211.242 94.6719 211.105 94.0977 210.957 93.4883C210.816 92.8711 210.684 92.3008 210.559 91.7773C210.441 91.2539 210.355 90.8711 210.301 90.6289H210.195C210.141 90.8711 210.055 91.2539 209.938 91.7773C209.82 92.3008 209.688 92.8711 209.539 93.4883C209.398 94.1055 209.266 94.6875 209.141 95.2344C209.016 95.7734 208.922 96.1836 208.859 96.4648L207.805 101H203.961L200.234 87.8984H203.797L205.309 93.6992C205.41 94.1055 205.508 94.5898 205.602 95.1523C205.695 95.707 205.777 96.2461 205.848 96.7695C205.926 97.2852 205.984 97.6953 206.023 98H206.117C206.133 97.7734 206.164 97.4727 206.211 97.0977C206.266 96.7227 206.324 96.3359 206.387 95.9375C206.457 95.5312 206.52 95.168 206.574 94.8477C206.637 94.5195 206.684 94.2969 206.715 94.1797L208.332 87.8984H212.27L213.805 94.1797C213.859 94.4062 213.93 94.7656 214.016 95.2578C214.109 95.75 214.191 96.2578 214.262 96.7812C214.332 97.2969 214.371 97.7031 214.379 98H214.473C214.504 97.7344 214.559 97.3398 214.637 96.8164C214.715 96.293 214.805 95.7461 214.906 95.1758C215.016 94.5977 215.125 94.1055 215.234 93.6992L216.805 87.8984H220.309L216.535 101H212.645ZM227.797 87.6289C229.555 87.6289 230.902 88.0117 231.84 88.7773C232.777 89.543 233.246 90.707 233.246 92.2695V101H230.75L230.059 99.2188H229.965C229.59 99.6875 229.207 100.07 228.816 100.367C228.426 100.664 227.977 100.883 227.469 101.023C226.961 101.164 226.344 101.234 225.617 101.234C224.844 101.234 224.148 101.086 223.531 100.789C222.922 100.492 222.441 100.039 222.09 99.4297C221.738 98.8125 221.562 98.0312 221.562 97.0859C221.562 95.6953 222.051 94.6719 223.027 94.0156C224.004 93.3516 225.469 92.9844 227.422 92.9141L229.695 92.8438V92.2695C229.695 91.582 229.516 91.0781 229.156 90.7578C228.797 90.4375 228.297 90.2773 227.656 90.2773C227.023 90.2773 226.402 90.3672 225.793 90.5469C225.184 90.7266 224.574 90.9531 223.965 91.2266L222.781 88.8125C223.477 88.4453 224.254 88.1562 225.113 87.9453C225.98 87.7344 226.875 87.6289 227.797 87.6289ZM229.695 94.9297L228.312 94.9766C227.156 95.0078 226.352 95.2148 225.898 95.5977C225.453 95.9805 225.23 96.4844 225.23 97.1094C225.23 97.6562 225.391 98.0469 225.711 98.2812C226.031 98.5078 226.449 98.6211 226.965 98.6211C227.73 98.6211 228.375 98.3945 228.898 97.9414C229.43 97.4883 229.695 96.8438 229.695 96.0078V94.9297ZM244.379 87.6523C245.777 87.6523 246.902 88.0352 247.754 88.8008C248.605 89.5586 249.031 90.7773 249.031 92.457V101H245.457V93.3477C245.457 92.4102 245.285 91.7031 244.941 91.2266C244.605 90.75 244.074 90.5117 243.348 90.5117C242.254 90.5117 241.508 90.8828 241.109 91.625C240.711 92.3672 240.512 93.4375 240.512 94.8359V101H236.938V87.8984H239.668L240.148 89.5742H240.348C240.629 89.1211 240.977 88.7539 241.391 88.4727C241.812 88.1914 242.277 87.9844 242.785 87.8516C243.301 87.7188 243.832 87.6523 244.379 87.6523ZM256.285 87.8984V101H252.711V87.8984H256.285ZM254.504 82.7656C255.035 82.7656 255.492 82.8906 255.875 83.1406C256.258 83.3828 256.449 83.8398 256.449 84.5117C256.449 85.1758 256.258 85.6367 255.875 85.8945C255.492 86.1445 255.035 86.2695 254.504 86.2695C253.965 86.2695 253.504 86.1445 253.121 85.8945C252.746 85.6367 252.559 85.1758 252.559 84.5117C252.559 83.8398 252.746 83.3828 253.121 83.1406C253.504 82.8906 253.965 82.7656 254.504 82.7656ZM265.449 87.6523C266.66 87.6523 267.703 87.8867 268.578 88.3555C269.453 88.8164 270.129 89.4883 270.605 90.3711C271.082 91.2539 271.32 92.332 271.32 93.6055V95.3398H262.871C262.91 96.3477 263.211 97.1406 263.773 97.7188C264.344 98.2891 265.133 98.5742 266.141 98.5742C266.977 98.5742 267.742 98.4883 268.438 98.3164C269.133 98.1445 269.848 97.8867 270.582 97.543V100.309C269.934 100.629 269.254 100.863 268.543 101.012C267.84 101.16 266.984 101.234 265.977 101.234C264.664 101.234 263.5 100.992 262.484 100.508C261.477 100.023 260.684 99.2852 260.105 98.293C259.535 97.3008 259.25 96.0508 259.25 94.543C259.25 93.0117 259.508 91.7383 260.023 90.7227C260.547 89.6992 261.273 88.9336 262.203 88.4258C263.133 87.9102 264.215 87.6523 265.449 87.6523ZM265.473 90.1953C264.777 90.1953 264.199 90.418 263.738 90.8633C263.285 91.3086 263.023 92.0078 262.953 92.9609H267.969C267.961 92.4297 267.863 91.957 267.676 91.543C267.496 91.1289 267.223 90.8008 266.855 90.5586C266.496 90.3164 266.035 90.1953 265.473 90.1953Z" fill="#18AB88"/>
</svg>

